<?xml version="1.0" encoding="utf-8"?>
<!-- Svg Vector Icons : http://www.onlinewebfonts.com/icon -->
<!DOCTYPE svg PUBLIC "-//W3C//DTD SVG 1.1//EN" "http://www.w3.org/Graphics/SVG/1.1/DTD/svg11.dtd">
<svg version="1.1" xmlns="http://www.w3.org/2000/svg" xmlns:xlink="http://www.w3.org/1999/xlink" x="0px" y="0px" viewBox="0 0 256 256" enable-background="new 0 0 256 256" xml:space="preserve">
<metadata> Svg Vector Icons : http://www.onlinewebfonts.com/icon </metadata>
<g><g><path fill="#000000" d="M192.9,202.7c-21.9,0-39.3-17.4-39.3-39.3c0-21.9,17.4-39.3,39.3-39.3c21.9,0,39.3,17.4,39.3,39.3C232.2,184.6,214.1,202.7,192.9,202.7z M192.9,136.9c-14.4,0-25.7,11.3-25.7,25.7c0,14.4,11.3,25.7,25.7,25.7c14.4,0,25.7-11.3,25.7-25.7C218.6,149,207.3,136.9,192.9,136.9z"/><path fill="#000000" d="M220.8,178.2l25.2,24l-9.4,9.9l-25.2-24L220.8,178.2L220.8,178.2z"/><path fill="#000000" d="M238.3,53c0,5.3-5.3,9.1-11.3,9.1H21.3C15.3,62.9,10,58.3,10,53l0,0c0-4.5,5.3-9.1,11.3-9.1H227C233,44,238.3,48.5,238.3,53L238.3,53z"/><path fill="#000000" d="M129.4,127.9c0,5.3-3,9.1-6,9.1H16c-3,0-6-4.5-6-9.1l0,0c0-5.3,3-9.1,6-9.1h108.1C127.2,118.8,129.4,122.6,129.4,127.9L129.4,127.9z"/><path fill="#000000" d="M129.4,202.7c0,5.3-3,9.1-6,9.1H16c-3,0-6-4.6-6-9.1l0,0c0-5.3,3-9.1,6-9.1h108.1C127.2,192.9,129.4,197.4,129.4,202.7L129.4,202.7z"/></g></g>
</svg>