<?xml version="1.0" ?><svg id="Layer_1" style="enable-background:new 0 0 74 74;" version="1.1" viewBox="0 0 74 74" xml:space="preserve" xmlns="http://www.w3.org/2000/svg" xmlns:xlink="http://www.w3.org/1999/xlink"><style type="text/css">
	.st0{fill:#2B3033;}
</style><g><path class="st0" d="M65.5,10.9h-1.6V9.5c0-4.1-3.4-7.4-7.6-7.4H8.5c-4.2,0-7.6,3.3-7.6,7.4v46.1c0,4.1,3.4,7.4,7.6,7.4h1.6v1.4   c0,4.1,3.4,7.4,7.6,7.4h47.8c4.2,0,7.6-3.3,7.6-7.4V18.4C73.1,14.3,69.7,10.9,65.5,10.9z M4.9,55.6V21.6H53c1.1,0,2-0.9,2-2   s-0.9-2-2-2H4.9V9.5c0-1.9,1.6-3.4,3.6-3.4h47.8c2,0,3.6,1.5,3.6,3.4v46.1c0,1.9-1.6,3.4-3.6,3.4H8.5C6.5,59.1,4.9,57.5,4.9,55.6z    M69.1,64.5c0,1.9-1.6,3.4-3.6,3.4H17.7c-2,0-3.6-1.5-3.6-3.4v-1.4h42.2c4.2,0,7.6-3.3,7.6-7.4V14.9h1.6c2,0,3.6,1.5,3.6,3.4V64.5z   "/><path class="st0" d="M13.2,9.8h-0.9c-1.1,0-2,0.9-2,2s0.9,2,2,2h0.9c1.1,0,2-0.9,2-2S14.3,9.8,13.2,9.8z"/><path class="st0" d="M22.2,9.8h-0.9c-1.1,0-2,0.9-2,2s0.9,2,2,2h0.9c1.1,0,2-0.9,2-2S23.3,9.8,22.2,9.8z"/><path class="st0" d="M31.2,9.8h-0.9c-1.1,0-2,0.9-2,2s0.9,2,2,2h0.9c1.1,0,2-0.9,2-2S32.3,9.8,31.2,9.8z"/><path class="st0" d="M46.6,43.9l-3.9-2.7l3.6-2.2c0.7-0.4,1.1-1.2,0.9-2c-0.1-0.8-0.7-1.4-1.5-1.6l-20.2-5.2   c-0.7-0.2-1.4,0-1.9,0.5c-0.5,0.5-0.7,1.2-0.5,1.9l5.4,19.7c0.2,0.8,0.8,1.3,1.6,1.5c0.8,0.1,1.6-0.2,2-0.9l2.3-3.6l2.8,3.8   c0.3,0.5,0.9,0.8,1.4,0.8c0.1,0,0.1,0,0.2,0c0.5,0,1-0.2,1.4-0.6l6.6-6.3c0.4-0.4,0.7-1,0.6-1.6S47.1,44.2,46.6,43.9z M39.2,48.9   l-3.2-4.4c-0.4-0.5-1-0.8-1.6-0.8c0,0,0,0-0.1,0c-0.7,0-1.3,0.4-1.6,0.9l-1.4,2.3l-3.3-12L40.2,38l-2.2,1.3c-0.6,0.4-0.9,1-1,1.7   c0,0.7,0.3,1.3,0.9,1.7l4.5,3.1L39.2,48.9z"/></g></svg>